<?xml version="1.0" encoding="UTF-8"?>
<svg width="273.5" height="121.06" preserveAspectRatio="xMidYMid" version="1.0" viewBox="0 0 205.12 90.796" xmlns="http://www.w3.org/2000/svg" zoomAndPan="magnify">
 <defs></defs>
 <g transform="translate(-104.94 -143.72)">
  <g transform="translate(170.11 220.43)">
   <path d="m2.3672-2.9922h2.8672c2.8008 0 4.1133-1.5859 4.1133-3.5078 0-1.8398-1.2969-3.6797-4.0664-3.6797h-3.4727c-0.32031 0-0.59375 0.22266-0.59375 0.55859v9.0938c0 0.35156 0.28906 0.52734 0.57812 0.52734 0.28906 0 0.57422-0.17578 0.57422-0.54297zm0-1.043v-5.1055h2.9297c1.8594 0 2.9141 1.3281 2.9141 2.6406 0 1.2188-0.84766 2.4648-2.9766 2.4648z"/>
  </g>
  <g transform="translate(186.07 220.43)">
   <path d="m5.3945-10.34c-0.20703 0-0.43359 0.09375-0.52734 0.30469l-4.7227 9.2812c-0.19141 0.41797 0.20703 0.75391 0.57422 0.75391 0.19531 0 0.37109-0.078125 0.48047-0.28906l1.1875-2.2891h6.0156l1.1523 2.2734c0.11328 0.22656 0.32031 0.30469 0.53125 0.30469 0.39844 0 0.76562-0.32031 0.54297-0.76953l-4.7227-9.2656c-0.11328-0.21094-0.30469-0.30469-0.51172-0.30469zm0 1.7109 2.5117 5.043h-5.043z"/>
  </g>
  <g transform="translate(202.94 220.43)">
   <path d="m8.6758-10.18h-8.293c-0.75 0-0.75 1.1055 0 1.1055h3.5547v8.4805c0 0.40234 0.30469 0.59375 0.57812 0.59375 0.26953 0 0.60547-0.19141 0.60547-0.59375l-0.015625-8.4805h3.5703c0.78516 0 0.78516-1.1055 0-1.1055z"/>
  </g>
  <g transform="translate(218.08 220.43)">
   <path d="m1.1055-9.5898v9.0312c0 0.38281 0.28906 0.55859 0.58984 0.55859 0.30469 0 0.60938-0.19141 0.60938-0.55859v-9.0312c0-0.39844-0.30469-0.58984-0.60938-0.58984-0.28516 0-0.58984 0.19141-0.58984 0.58984z"/>
  </g>
  <g transform="translate(227.32 220.43)">
   <path d="m0.35156-2.2422c0.52734 1.9219 3.0273 2.4023 4.6602 2.4023 1.9688 0 4.7031-0.67188 4.7031-3.1211 0-2.4023-2.3516-2.5117-4.543-2.707-1.8594-0.14062-3.4609-0.28516-3.4609-1.6797 0-1.457 2.082-1.8086 3.1562-1.8086 1.1523 0 2.8633 0.12891 3.3438 1.3438 0.24219 0.54688 1.3281 0.25781 1.0898-0.38281-0.67188-1.8242-2.7695-2.1445-4.4492-2.1445-1.9531 0-4.3867 0.86328-4.3867 2.9766 0 2.3867 2.3672 2.5938 4.5781 2.7695 1.7617 0.14453 3.4414 0.25781 3.4414 1.6484 0 1.6172-2.1133 1.9531-3.4727 1.9531-1.2812 0-3.0586-0.20703-3.4766-1.5352-0.125-0.65625-1.375-0.41797-1.1836 0.28516z"/>
  </g>
  <g transform="translate(243.37 220.43)">
   <path d="m0.35156-2.2422c0.52734 1.9219 3.0273 2.4023 4.6602 2.4023 1.9688 0 4.7031-0.67188 4.7031-3.1211 0-2.4023-2.3516-2.5117-4.543-2.707-1.8594-0.14062-3.4609-0.28516-3.4609-1.6797 0-1.457 2.082-1.8086 3.1562-1.8086 1.1523 0 2.8633 0.12891 3.3438 1.3438 0.24219 0.54688 1.3281 0.25781 1.0898-0.38281-0.67188-1.8242-2.7695-2.1445-4.4492-2.1445-1.9531 0-4.3867 0.86328-4.3867 2.9766 0 2.3867 2.3672 2.5938 4.5781 2.7695 1.7617 0.14453 3.4414 0.25781 3.4414 1.6484 0 1.6172-2.1133 1.9531-3.4727 1.9531-1.2812 0-3.0586-0.20703-3.4766-1.5352-0.125-0.65625-1.375-0.41797-1.1836 0.28516z"/>
  </g>
  <g transform="translate(259.42 220.43)">
   <path d="m2.3672-1.0547v-3.4766h6.0195c0.67188 0 0.64062-1.0234 0-1.0234h-6.0195v-3.6016h6.3242c0.67188 0 0.70312-1.0234 0.015625-1.0234h-6.7539c-0.44922 0-0.73828 0.32031-0.73828 0.6875v8.7891c0 0.38281 0.28906 0.70312 0.73828 0.70312h6.7383c0.76953 0 0.67188-1.0547 0-1.0547z"/>
  </g>
  <g transform="translate(275.36 220.43)">
   <path d="m2.3867-3.5547h3.1055l3.0859 3.3477c0.12891 0.14453 0.28906 0.20703 0.43359 0.20703 0.43359 0 0.81641-0.52734 0.36719-0.97656l-2.4492-2.6406c1.9688-0.33594 2.8516-1.5039 2.8516-3.1211 0-1.875-1.4102-3.4414-4.1797-3.4414h-3.793c-0.35156 0-0.59375 0.22266-0.59375 0.55859v9.0781c0 0.35156 0.28906 0.54297 0.57812 0.54297 0.30469 0 0.59375-0.19141 0.59375-0.55859zm0-1.0078v-4.5469h3.2305c1.8594 0 2.9609 1.0586 2.9766 2.4336 0 1.168-0.91016 2.1133-2.9766 2.1133z"/>
  </g>
  <g transform="translate(291.59 220.43)">
   <path d="m1.1055-9.5898v9.0312c0 0.38281 0.28906 0.55859 0.58984 0.55859 0.30469 0 0.60938-0.19141 0.60938-0.55859v-9.0312c0-0.39844-0.30469-0.58984-0.60938-0.58984-0.28516 0-0.58984 0.19141-0.58984 0.58984z"/>
  </g>
  <g transform="translate(300.83 220.43)">
   <path d="m2.3672-1.0547v-3.4766h6.0195c0.67188 0 0.64062-1.0234 0-1.0234h-6.0195v-3.6016h6.3242c0.67188 0 0.70312-1.0234 0.015625-1.0234h-6.7539c-0.44922 0-0.73828 0.32031-0.73828 0.6875v8.7891c0 0.38281 0.28906 0.70312 0.73828 0.70312h6.7383c0.76953 0 0.67188-1.0547 0-1.0547z"/>
  </g>
  <g transform="translate(102.27 197.06)">
   <path d="m43.953-12.613c-0.53906-0.21484-1.1367 0-1.3516 0.54297-6.1719 13.098-12.125 22.734-17.754 28.633-4.7656 4.9805-9.043 7.0391-12.453 6.0117-3.082-0.97656-5.4648-4.6016-6.6562-10.23-1.3555-6.0664-1.3008-13.859 0.10938-22.52 2-12.344 7.793-29.828 14.559-37.945 2.0039-2.3828 3.7383-3.5195 4.7656-2.9805 2.543 1.2461 3.5703 11.586-2.0039 36.648-0.16016 0.54297 0.21875 1.082 0.75781 1.2461 0.59766 0.10547 1.1367-0.27344 1.2461-0.8125 3.625-16.188 6.7109-36.105 0.91797-38.977-1.4062-0.70312-3.7891-0.64844-7.2539 3.5195-4.3281 5.1953-7.6289 12.938-9.6328 18.566-2.4375 6.6602-4.3867 14.129-5.4141 20.41-3.0312 18.566 0.21484 32.641 8.0117 35.074 0.75781 0.21875 1.5703 0.32812 2.3828 0.32812 8.5508 0 19.434-12.887 30.258-36.109 0.26953-0.53906 0.05469-1.1367-0.48828-1.4062z"/>
  </g>
  <g transform="translate(144.06 197.06)">
   <path d="m22.629-12.016c-0.48828-0.21875-1.1367 0-1.3555 0.48438-4.1133 8.3906-7.1992 11.043-8.6602 10.773-0.59766-0.10938-2.543-1.2461-3.0312-10.719 0-0.43359-0.32422-0.8125-0.70312-0.91797-0.43359-0.10938-0.92188 0-1.1367 0.37891-0.32422 0.37891-0.65234 0.80859-0.97656 1.2969-1.3516 1.8398-3.1406 4.332-5.3047 6.6602-0.32422 0.37891-0.59375 0.59375-0.75781 0.70312-0.37891-1.8945 1.625-9.1484 4.8164-11.422 0.92188-0.64844 2.168-1.1367 3.8438 0.8125 0.37891 0.43359 1.0312 0.48438 1.4648 0.10547 0.42969-0.32422 0.48438-1.0273 0.16016-1.4609-2.0547-2.3789-4.0039-2.3281-5.3047-1.8945-4.168 1.4609-6.9844 9.4727-7.0898 13.156-0.054688 1.5156 0.37891 2.4883 1.2422 2.8125 1.3555 0.54297 2.707-0.91797 3.1406-1.4062 1.8398-2.0039 3.5195-4.168 4.7109-5.8477 0.59375 6.1719 2.0547 9.2578 4.4922 9.8008 0.21484 0 0.43359 0.050781 0.64844 0.050781 3.6836 0 7.6328-6.4414 10.285-11.961 0.27344-0.54297 0.05469-1.1367-0.48438-1.4062z"/>
  </g>
  <g transform="translate(164.19 197.06)">
   <path d="m10.988-14.289c-2.4336 0.26953-4.3828 0.53906-6.6055 0.75781 0.21875-0.92188 0.43359-1.7891 0.65234-2.6523 0.054688 0 0.054688-0.05469 0.10547-0.10938 5.5234-8.7695 10.18-19.434 8.3906-22.195-0.37891-0.48828-0.91797-0.70312-1.4609-0.59375-3.0859 0.48438-6.332 12.016-7.3086 15.535-0.80859 3.0859-1.6758 6.4961-2.543 10.176-1.4609 0.16406-3.0859 0.26953-5.0352 0.43359-0.53906 0.05469-0.97266 0.54297-0.91797 1.1367 0 0.54297 0.48828 0.92188 1.0273 0.92188h0.054687c1.6797-0.10938 3.0859-0.21875 4.332-0.32812-1.9492 8.1758-4.0078 17.324-5.793 25.875-1.3008 6.1719-2.3281 11.422-2.9258 15.266-1.082 6.3906-0.97266 7.1484 0.054687 7.4727 0.10938 0 0.27344 0.05469 0.37891 0.05469 0.92188 0 1.4102-1.3555 1.8945-2.707 0.21875-0.54297-0.10547-1.1367-0.64844-1.3555-0.054687 0-0.10938-0.05469-0.16016-0.05469 1.0273-7.1445 5.0859-26.848 9.418-44.766 2.543-0.21484 4.6562-0.48828 7.3594-0.8125 0.54297-0.10938 0.97656-0.59375 0.86719-1.1914-0.05469-0.53906-0.59375-0.97266-1.1367-0.86328zm0.75781-21.926c-0.21484 1.9492-1.4062 6.2812-4.8164 12.723 2.0547-7.5781 3.8438-11.262 4.8164-12.723z"/>
  </g>
  <g transform="translate(176.48 197.06)">
   <path d="m21.543-11.691c-0.48438-0.27344-1.1367-0.10938-1.4062 0.37891-5.1406 8.2266-9.4727 11.906-10.395 11.582 0 0-1.082-0.59375-0.050782-6.8203 0.37891-2.1094 0.53906-3.3008-0.48828-3.7344-0.97656-0.37891-1.5703 0.43359-2.707 2.0586-0.92188 1.2969-2.1641 3.0312-3.5195 4.2227-0.16016 0.10547-0.75781 0.64844-1.0273 0.42969-0.8125-0.64844-0.97656-4.168 0.91797-7.4141 0.32812-0.48828 0.10937-1.1367-0.37891-1.4609-0.48438-0.27344-1.1367-0.10938-1.4062 0.37891-2.1641 3.7891-2.3828 8.4961-0.48828 10.066 0.48828 0.43359 1.8438 1.1914 3.7383-0.37891 1.2422-1.082 2.3242-2.4883 3.1914-3.6797-0.75781 5.0352-0.32422 7.5781 1.4609 8.2812 0.27344 0.10938 0.54297 0.10938 0.75781 0.10938 4.1172 0 10.773-10.395 12.129-12.559 0.32422-0.48828 0.16016-1.1367-0.32812-1.4609z"/>
  </g>
  <g transform="translate(195.86 197.06)">
   <path d="m21.762-12.07c-0.48828-0.27344-1.1367-0.10938-1.4102 0.43359-1.2969 2.2188-4.707 8.2266-6.6562 8.0117-0.37891-0.054688-1.4609-0.59766-2.543-4.3867-0.75781-2.6523-1.7891-5.1406-3.7891-5.25-1.4648-0.10938-3.0859 1.0273-5.5781 5.6836 0.65234-2.3281 1.3555-4.6562 1.8945-6.5508 0.21875-0.70312 0.37891-1.2969 0.54297-1.8945 0.16016-0.53906-0.16406-1.1367-0.70312-1.2969-0.54297-0.16406-1.1367 0.16016-1.3008 0.75781-0.16016 0.53906-0.32422 1.1875-0.53906 1.8398-1.4102 4.8164-3.5195 12.125-4.0625 16.562-0.054688 0.48828 0.27344 0.97656 0.75781 1.082 0.10938 0.054687 0.16406 0.054687 0.27344 0.054687 0.42969 0 0.80859-0.26953 0.97266-0.64844 5.0898-12.668 7.1445-13.535 7.6328-13.535 0.10938 0 0.86719 0.21875 1.8945 3.7891 1.082 3.7383 2.4883 5.6328 4.332 5.8477 2.7578 0.32422 5.25-3.0859 8.6602-9.0391 0.32422-0.54297 0.10938-1.1367-0.37891-1.4609z"/>
  </g>
  <g transform="translate(215.18 197.06)">
   <path d="m18.297-11.258c-0.48828-0.37891-1.1367-0.27344-1.4609 0.21484-4.0625 5.6836-7.3633 9.2578-10.664 11.586-1.5703 1.1367-3.1406 1.4062-4.168 0.64844-0.65234-0.48828-2.6523-2.6523-0.32422-10.23 5.25-4.332 8.1172-8.5 7.3594-10.609-0.26953-0.70312-0.91797-1.082-1.6211-1.082-2.168 0.05078-5.4688 3.7344-7.6328 10.715v0.054687c-2.707 8.5547-0.54297 11.691 1.0273 12.828 0.75781 0.54297 1.625 0.8125 2.5977 0.8125 1.2461 0 2.6523-0.48438 4.0078-1.4062 3.4609-2.4883 6.8711-6.2266 11.094-12.125 0.32422-0.43359 0.21875-1.082-0.21484-1.4062zm-11.312-7.1992c-0.21875 0.80859-1.1367 2.5977-3.7383 5.1406 1.4648-3.0859 2.9805-4.6562 3.7383-5.1406zm-0.43359-4.4414c0.21484 0.16406 0.43359 0.26953 0.64844 0.26953 0.32422 0 0.59766-0.16016 0.8125-0.37891l3.5195-4.3828c0.32422-0.43359 0.26953-1.082-0.16406-1.4609-0.48828-0.37891-1.1367-0.26953-1.4609 0.16016l-3.5195 4.332c-0.32422 0.48828-0.26953 1.1367 0.16406 1.4609z"/>
  </g>
 </g>
</svg>
